<mxfile host="app.diagrams.net" agent="Mozilla/5.0 (Windows NT 10.0; Win64; x64) AppleWebKit/537.36 (KHTML, like Gecko) Chrome/132.0.0.0 Safari/537.36 OPR/117.0.0.0" version="26.1.0">
  <diagram name="Page-1" id="_5KpKMasY0ckzvZiIe1Y">
    <mxGraphModel dx="734" dy="822" grid="1" gridSize="10" guides="1" tooltips="1" connect="1" arrows="1" fold="1" page="1" pageScale="1" pageWidth="850" pageHeight="1100" math="0" shadow="0">
      <root>
        <mxCell id="0" />
        <mxCell id="1" parent="0" />
        <mxCell id="gMn4cak9dOjhx62AgXBl-14" style="edgeStyle=orthogonalEdgeStyle;rounded=0;orthogonalLoop=1;jettySize=auto;html=1;exitX=0.5;exitY=1;exitDx=0;exitDy=0;entryX=0.5;entryY=0;entryDx=0;entryDy=0;" edge="1" parent="1" source="gMn4cak9dOjhx62AgXBl-1" target="gMn4cak9dOjhx62AgXBl-3">
          <mxGeometry relative="1" as="geometry" />
        </mxCell>
        <mxCell id="gMn4cak9dOjhx62AgXBl-16" style="edgeStyle=orthogonalEdgeStyle;rounded=0;orthogonalLoop=1;jettySize=auto;html=1;exitX=0.5;exitY=1;exitDx=0;exitDy=0;entryX=0.5;entryY=0;entryDx=0;entryDy=0;" edge="1" parent="1" source="gMn4cak9dOjhx62AgXBl-1" target="gMn4cak9dOjhx62AgXBl-4">
          <mxGeometry relative="1" as="geometry" />
        </mxCell>
        <mxCell id="gMn4cak9dOjhx62AgXBl-17" style="edgeStyle=orthogonalEdgeStyle;rounded=0;orthogonalLoop=1;jettySize=auto;html=1;exitX=0.5;exitY=1;exitDx=0;exitDy=0;entryX=0.5;entryY=0;entryDx=0;entryDy=0;" edge="1" parent="1" source="gMn4cak9dOjhx62AgXBl-1" target="gMn4cak9dOjhx62AgXBl-5">
          <mxGeometry relative="1" as="geometry" />
        </mxCell>
        <mxCell id="gMn4cak9dOjhx62AgXBl-18" style="edgeStyle=orthogonalEdgeStyle;rounded=0;orthogonalLoop=1;jettySize=auto;html=1;exitX=0.5;exitY=1;exitDx=0;exitDy=0;entryX=0.5;entryY=0;entryDx=0;entryDy=0;" edge="1" parent="1" source="gMn4cak9dOjhx62AgXBl-1" target="gMn4cak9dOjhx62AgXBl-9">
          <mxGeometry relative="1" as="geometry" />
        </mxCell>
        <mxCell id="gMn4cak9dOjhx62AgXBl-19" style="edgeStyle=orthogonalEdgeStyle;rounded=0;orthogonalLoop=1;jettySize=auto;html=1;exitX=0.5;exitY=1;exitDx=0;exitDy=0;entryX=0.5;entryY=0;entryDx=0;entryDy=0;" edge="1" parent="1" source="gMn4cak9dOjhx62AgXBl-1" target="gMn4cak9dOjhx62AgXBl-10">
          <mxGeometry relative="1" as="geometry" />
        </mxCell>
        <mxCell id="gMn4cak9dOjhx62AgXBl-1" value="Index" style="rounded=0;whiteSpace=wrap;html=1;" vertex="1" parent="1">
          <mxGeometry x="440" y="100" width="120" height="60" as="geometry" />
        </mxCell>
        <mxCell id="gMn4cak9dOjhx62AgXBl-3" value="Dashboard" style="rounded=0;whiteSpace=wrap;html=1;" vertex="1" parent="1">
          <mxGeometry x="40" y="240" width="120" height="60" as="geometry" />
        </mxCell>
        <mxCell id="gMn4cak9dOjhx62AgXBl-4" value="Maids" style="rounded=0;whiteSpace=wrap;html=1;" vertex="1" parent="1">
          <mxGeometry x="240" y="240" width="120" height="60" as="geometry" />
        </mxCell>
        <mxCell id="gMn4cak9dOjhx62AgXBl-5" value="Clients" style="rounded=0;whiteSpace=wrap;html=1;" vertex="1" parent="1">
          <mxGeometry x="440" y="240" width="120" height="60" as="geometry" />
        </mxCell>
        <mxCell id="gMn4cak9dOjhx62AgXBl-6" value="View Maids" style="rounded=0;whiteSpace=wrap;html=1;" vertex="1" parent="1">
          <mxGeometry x="280" y="340" width="120" height="60" as="geometry" />
        </mxCell>
        <mxCell id="gMn4cak9dOjhx62AgXBl-7" value="Add Maids" style="rounded=0;whiteSpace=wrap;html=1;" vertex="1" parent="1">
          <mxGeometry x="280" y="540" width="120" height="60" as="geometry" />
        </mxCell>
        <mxCell id="gMn4cak9dOjhx62AgXBl-8" value="Edit Maids" style="rounded=0;whiteSpace=wrap;html=1;" vertex="1" parent="1">
          <mxGeometry x="320" y="440" width="120" height="60" as="geometry" />
        </mxCell>
        <mxCell id="gMn4cak9dOjhx62AgXBl-9" value="Calendar" style="rounded=0;whiteSpace=wrap;html=1;" vertex="1" parent="1">
          <mxGeometry x="640" y="240" width="120" height="60" as="geometry" />
        </mxCell>
        <mxCell id="gMn4cak9dOjhx62AgXBl-10" value="Analytics" style="rounded=0;whiteSpace=wrap;html=1;" vertex="1" parent="1">
          <mxGeometry x="840" y="240" width="120" height="60" as="geometry" />
        </mxCell>
        <mxCell id="gMn4cak9dOjhx62AgXBl-23" value="" style="endArrow=none;html=1;rounded=0;exitX=0;exitY=0.5;exitDx=0;exitDy=0;entryX=0.089;entryY=0.992;entryDx=0;entryDy=0;entryPerimeter=0;" edge="1" parent="1" source="gMn4cak9dOjhx62AgXBl-6" target="gMn4cak9dOjhx62AgXBl-4">
          <mxGeometry width="50" height="50" relative="1" as="geometry">
            <mxPoint x="250" y="580" as="sourcePoint" />
            <mxPoint x="253" y="300" as="targetPoint" />
            <Array as="points">
              <mxPoint x="250" y="370" />
            </Array>
          </mxGeometry>
        </mxCell>
        <mxCell id="gMn4cak9dOjhx62AgXBl-25" value="" style="endArrow=none;html=1;rounded=0;exitX=0;exitY=0.5;exitDx=0;exitDy=0;" edge="1" parent="1" source="gMn4cak9dOjhx62AgXBl-8">
          <mxGeometry width="50" height="50" relative="1" as="geometry">
            <mxPoint x="360" y="500" as="sourcePoint" />
            <mxPoint x="290" y="400" as="targetPoint" />
            <Array as="points">
              <mxPoint x="290" y="470" />
            </Array>
          </mxGeometry>
        </mxCell>
        <mxCell id="gMn4cak9dOjhx62AgXBl-26" value="" style="endArrow=none;html=1;rounded=0;exitX=0;exitY=0.5;exitDx=0;exitDy=0;" edge="1" parent="1" source="gMn4cak9dOjhx62AgXBl-7">
          <mxGeometry width="50" height="50" relative="1" as="geometry">
            <mxPoint x="320" y="570" as="sourcePoint" />
            <mxPoint x="250" y="370" as="targetPoint" />
            <Array as="points">
              <mxPoint x="250" y="570" />
            </Array>
          </mxGeometry>
        </mxCell>
        <mxCell id="gMn4cak9dOjhx62AgXBl-27" value="View Maids" style="rounded=0;whiteSpace=wrap;html=1;" vertex="1" parent="1">
          <mxGeometry x="480" y="340" width="120" height="60" as="geometry" />
        </mxCell>
        <mxCell id="gMn4cak9dOjhx62AgXBl-28" value="Add Maids" style="rounded=0;whiteSpace=wrap;html=1;" vertex="1" parent="1">
          <mxGeometry x="480" y="540" width="120" height="60" as="geometry" />
        </mxCell>
        <mxCell id="gMn4cak9dOjhx62AgXBl-29" value="Edit Maids" style="rounded=0;whiteSpace=wrap;html=1;" vertex="1" parent="1">
          <mxGeometry x="520" y="440" width="120" height="60" as="geometry" />
        </mxCell>
        <mxCell id="gMn4cak9dOjhx62AgXBl-30" value="" style="endArrow=none;html=1;rounded=0;exitX=0;exitY=0.5;exitDx=0;exitDy=0;entryX=0.089;entryY=0.992;entryDx=0;entryDy=0;entryPerimeter=0;" edge="1" parent="1" source="gMn4cak9dOjhx62AgXBl-27">
          <mxGeometry width="50" height="50" relative="1" as="geometry">
            <mxPoint x="450" y="580" as="sourcePoint" />
            <mxPoint x="451" y="300" as="targetPoint" />
            <Array as="points">
              <mxPoint x="450" y="370" />
            </Array>
          </mxGeometry>
        </mxCell>
        <mxCell id="gMn4cak9dOjhx62AgXBl-31" value="" style="endArrow=none;html=1;rounded=0;exitX=0;exitY=0.5;exitDx=0;exitDy=0;" edge="1" parent="1" source="gMn4cak9dOjhx62AgXBl-29">
          <mxGeometry width="50" height="50" relative="1" as="geometry">
            <mxPoint x="560" y="500" as="sourcePoint" />
            <mxPoint x="490" y="400" as="targetPoint" />
            <Array as="points">
              <mxPoint x="490" y="470" />
            </Array>
          </mxGeometry>
        </mxCell>
        <mxCell id="gMn4cak9dOjhx62AgXBl-32" value="" style="endArrow=none;html=1;rounded=0;exitX=0;exitY=0.5;exitDx=0;exitDy=0;" edge="1" parent="1" source="gMn4cak9dOjhx62AgXBl-28">
          <mxGeometry width="50" height="50" relative="1" as="geometry">
            <mxPoint x="520" y="570" as="sourcePoint" />
            <mxPoint x="450" y="370" as="targetPoint" />
            <Array as="points">
              <mxPoint x="450" y="570" />
            </Array>
          </mxGeometry>
        </mxCell>
        <mxCell id="gMn4cak9dOjhx62AgXBl-33" value="Add Event" style="rounded=0;whiteSpace=wrap;html=1;" vertex="1" parent="1">
          <mxGeometry x="680" y="340" width="120" height="60" as="geometry" />
        </mxCell>
        <mxCell id="gMn4cak9dOjhx62AgXBl-34" value="" style="endArrow=none;html=1;rounded=0;exitX=0;exitY=0.5;exitDx=0;exitDy=0;entryX=0.089;entryY=0.992;entryDx=0;entryDy=0;entryPerimeter=0;" edge="1" parent="1">
          <mxGeometry width="50" height="50" relative="1" as="geometry">
            <mxPoint x="680" y="370" as="sourcePoint" />
            <mxPoint x="651" y="300" as="targetPoint" />
            <Array as="points">
              <mxPoint x="650" y="370" />
            </Array>
          </mxGeometry>
        </mxCell>
      </root>
    </mxGraphModel>
  </diagram>
</mxfile>
